<?xml version="1.0" encoding="utf-8"?>
<!-- Generator: Adobe Illustrator 27.5.0, SVG Export Plug-In . SVG Version: 6.00 Build 0)  -->
<svg version="1.1" id="Layer_1" xmlns="http://www.w3.org/2000/svg" xmlns:xlink="http://www.w3.org/1999/xlink" x="0px" y="0px"
	 viewBox="0 0 640 512" style="enable-background:new 0 0 640 512;" xml:space="preserve">
<style type="text/css">
	.st0{fill:#FFFFFF;}
</style>
<path class="st0" d="M386.1,228.5c1.8,9.7,3.1,19.4,3.1,32c0,109.8-73.6,187.5-184.4,187.5c-106.1,0-192-85.9-192-192
	s85.9-192,192-192c51.9,0,95.1,18.9,128.6,50.3l-52.1,50c-14.1-13.6-39-29.6-76.5-29.6c-65.5,0-118.9,54.2-118.9,121.3
	s53.4,121.3,118.9,121.3c76,0,104.5-54.7,109-82.8h-109v-66L386.1,228.5L386.1,228.5z M571.5,234.9v-55.7h-56v55.7h-55.7v56h55.7
	v55.7h56v-55.7h55.7v-56L571.5,234.9L571.5,234.9z"/>
</svg>
