<?xml version="1.0" encoding="utf-8"?>
<!-- Generator: Adobe Illustrator 27.0.1, SVG Export Plug-In . SVG Version: 6.00 Build 0)  -->
<svg version="1.1" id="Layer_1" xmlns="http://www.w3.org/2000/svg" xmlns:xlink="http://www.w3.org/1999/xlink" x="0px" y="0px"
	 viewBox="0 0 800 800" style="enable-background:new 0 0 800 800;" xml:space="preserve">
<style type="text/css">
	.st0{fill:none;stroke:#7D7D7D;stroke-width:50;stroke-miterlimit:133.3333;}
	
		.st1{opacity:0.5;fill:none;stroke:#7D7D7D;stroke-width:50;stroke-linecap:round;stroke-miterlimit:133.3333;enable-background:new    ;}
	.st2{fill:#7D7D7D;}
</style>
<path class="st0" d="M66.7,400c0-125.7,0-188.6,39.1-227.6c39.1-39.1,101.9-39.1,227.6-39.1h133.3c125.7,0,188.6,0,227.6,39.1
	c39.1,39.1,39.1,101.9,39.1,227.6v66.7c0,125.7,0,188.6-39.1,227.6c-39,39.1-101.9,39.1-227.6,39.1H333.3
	c-125.7,0-188.6,0-227.6-39.1c-39.1-39-39.1-101.9-39.1-227.6V400z"/>
<path class="st1" d="M233.3,133.3v-50"/>
<path class="st1" d="M566.7,133.3v-50"/>
<path class="st1" d="M83.3,300h633.3"/>
<path class="st2" d="M600,566.7c0,18.4-14.9,33.3-33.3,33.3s-33.3-14.9-33.3-33.3s14.9-33.3,33.3-33.3S600,548.3,600,566.7z"/>
<path class="st2" d="M600,433.3c0,18.4-14.9,33.3-33.3,33.3s-33.3-14.9-33.3-33.3s14.9-33.3,33.3-33.3S600,414.9,600,433.3z"/>
<path class="st2" d="M433.3,566.7c0,18.4-14.9,33.3-33.3,33.3c-18.4,0-33.3-14.9-33.3-33.3s14.9-33.3,33.3-33.3
	C418.4,533.3,433.3,548.3,433.3,566.7z"/>
<path class="st2" d="M433.3,433.3c0,18.4-14.9,33.3-33.3,33.3c-18.4,0-33.3-14.9-33.3-33.3S381.6,400,400,400
	C418.4,400,433.3,414.9,433.3,433.3z"/>
<path class="st2" d="M266.7,566.7c0,18.4-14.9,33.3-33.3,33.3S200,585.1,200,566.7s14.9-33.3,33.3-33.3S266.7,548.3,266.7,566.7z"/>
<path class="st2" d="M266.7,433.3c0,18.4-14.9,33.3-33.3,33.3S200,451.7,200,433.3s14.9-33.3,33.3-33.3S266.7,414.9,266.7,433.3z"/>
</svg>
