<?xml version="1.0" encoding="utf-8"?>
<!-- Generator: Adobe Illustrator 27.5.0, SVG Export Plug-In . SVG Version: 6.00 Build 0)  -->
<svg version="1.1" id="Layer_1" xmlns="http://www.w3.org/2000/svg" xmlns:xlink="http://www.w3.org/1999/xlink" x="0px" y="0px"
	 viewBox="0 0 339 341" style="enable-background:new 0 0 339 341;" xml:space="preserve">
<style type="text/css">
	.st0{fill:#FFFFFF;}
</style>
<path class="st0" d="M301.5,324.1c6.2,6.2,16.4,6.2,22.6,0s6.2-16.4,0-22.6L191.6,169L324.1,36.5c6.2-6.2,6.2-16.4,0-22.6
	s-16.4-6.2-22.6,0L169,146.4L36.5,13.9c-6.2-6.2-16.4-6.2-22.6,0s-6.2,16.4,0,22.6L146.4,169L13.9,301.5c-6.2,6.2-6.2,16.4,0,22.6
	s16.4,6.2,22.6,0L169,191.6L301.5,324.1z"/>
</svg>
